<svg width="19" height="20" viewBox="0 0 19 20" fill="none" xmlns="http://www.w3.org/2000/svg">
<g clip-path="url(#clip0_52_1291)">
<path d="M18.0148 9.34655H7.9748C7.68231 8.16972 6.61959 7.29761 5.35284 7.29761C4.0861 7.29761 3.02338 8.16972 2.73088 9.34655H0.652449C0.291943 9.34655 0 9.63854 0 9.99911C0 10.3597 0.291943 10.6517 0.652449 10.6517H2.73033C3.02172 11.8291 4.08499 12.7023 5.35284 12.7023C6.6207 12.7023 7.68341 11.8291 7.97536 10.6517H18.0153C18.3758 10.6517 18.6678 10.3597 18.6678 9.99911C18.6678 9.63854 18.3758 9.34655 18.0153 9.34655H18.0148ZM5.35229 11.3319C4.85356 11.3319 4.41951 11.0576 4.19115 10.6517C4.08278 10.4592 4.02085 10.2369 4.02085 10.0002C4.02085 9.76353 4.08333 9.54011 4.19226 9.34655C4.42062 8.94174 4.85466 8.66799 5.35229 8.66799C5.84992 8.66799 6.28397 8.94174 6.51232 9.34655C6.62125 9.53955 6.68373 9.76242 6.68373 10.0002C6.68373 10.238 6.6218 10.4592 6.51343 10.6517C6.28507 11.0576 5.85103 11.3319 5.35229 11.3319Z" fill="#333237"/>
<path d="M0.0620117 2.70814C0.0620117 3.06871 0.353955 3.36071 0.71446 3.36071L10.1329 3.35407C10.4243 4.53145 11.4876 5.40467 12.7555 5.40467C14.0233 5.40467 15.086 4.53145 15.378 3.35407H17.9773C18.3378 3.35407 18.6297 3.06208 18.6297 2.70151C18.6297 2.34094 18.3378 2.04894 17.9773 2.04894H15.3774C15.0849 0.872114 14.0222 0 12.7555 0C11.4887 0 10.426 0.872114 10.1335 2.04894L0.71446 2.05558C0.353955 2.05558 0.0620117 2.34757 0.0620117 2.70814ZM11.5943 3.35407C11.4859 3.16162 11.424 2.93931 11.424 2.70261C11.424 2.46592 11.4865 2.2425 11.5954 2.04894C11.8238 1.64413 12.2578 1.37039 12.7555 1.37039C13.2531 1.37039 13.6871 1.64413 13.9155 2.04894C14.0244 2.24195 14.0869 2.46481 14.0869 2.70261C14.0869 2.94041 14.025 3.16162 13.9166 3.35407C13.6882 3.75999 13.2542 4.03429 12.7555 4.03429C12.2567 4.03429 11.8227 3.75999 11.5943 3.35407Z" fill="#333237"/>
<path d="M0.0463867 17.2979C0.0463867 17.6585 0.33833 17.9505 0.698835 17.9505L10.093 17.9494C10.3844 19.1268 11.4477 20 12.7155 20C13.9834 20 15.0461 19.1268 15.338 17.9494H17.9815C18.342 17.9494 18.634 17.6574 18.634 17.2968C18.634 16.9363 18.342 16.6443 17.9815 16.6443H15.3375C15.045 15.4675 13.9822 14.5953 12.7155 14.5953C11.4488 14.5953 10.386 15.4675 10.0935 16.6443L0.699388 16.6454C0.338883 16.6454 0.0469396 16.9374 0.0469396 17.2979H0.0463867ZM11.5544 17.9494C11.446 17.757 11.3841 17.5346 11.3841 17.2979C11.3841 17.0613 11.4465 16.8378 11.5555 16.6443C11.7838 16.2395 12.2179 15.9657 12.7155 15.9657C13.2137 15.9657 13.6472 16.2395 13.8755 16.6443C13.9845 16.8373 14.0469 17.0602 14.0469 17.2979C14.0469 17.5357 13.985 17.757 13.8766 17.9494C13.6483 18.3553 13.2142 18.6296 12.7155 18.6296C12.2168 18.6296 11.7827 18.3553 11.5544 17.9494Z" fill="#333237"/>
</g>
<defs>
<clipPath id="clip0_52_1291">
<rect width="18.6667" height="20" fill="white"/>
</clipPath>
</defs>
</svg>
