<svg xmlns="http://www.w3.org/2000/svg" style="display: none;">

  <!-- Profile Icon -->
  <symbol id="icon-profile" viewBox="0 0 18 20" fill="currentColor">
    <path d="M11.9101 5.00063C11.9101 3.27506 10.5074 1.87524 8.77551 1.87524C7.04362 1.87524 5.64095 3.2738 5.64095 5.00063C5.64095 6.72746 7.04362 8.12602 8.77551 8.12602C10.5074 8.12602 11.9101 6.72746 11.9101 5.00063ZM3.76147 5.00063C3.76147 2.23871 6.00675 0 8.77551 0C11.5443 0 13.7908 2.23871 13.7908 5.00063C13.7908 7.76255 11.5455 10.0013 8.77551 10.0013C6.00549 10.0013 3.76147 7.76129 3.76147 5.00063ZM1.93119 18.1248H15.6236C15.2755 15.6521 13.1437 13.7492 10.5692 13.7492H6.98812C4.41361 13.7492 2.28312 15.6521 1.93372 18.1248H1.92993H1.93119ZM0 18.8404C0 14.9931 3.12573 11.8752 6.98559 11.8752H10.5667C14.4253 11.8752 17.5523 14.9918 17.5523 18.8404C17.5523 19.4806 17.0313 20 16.3893 20H1.163C0.520955 20 0 19.4806 0 18.8404Z"/>
  </symbol>

  <!-- Shopping Cart Icon -->
  <symbol id="icon-cart" viewBox="0 0 18 20" fill="currentColor">
    <path d="M15.8344 6.32707H12.999V4.27193C12.999 1.83709 11.214 0 8.84607 0C6.47818 0 4.35597 1.99123 4.35597 4.34712V6.32707H1.55687C0.698209 6.32707 0 7.02506 0 7.88346V16.2882C0 18.3358 1.66592 20.0013 3.71417 20.0013H13.6771C15.7254 20.0013 17.3913 18.3358 17.3913 16.2882V7.88346C17.3913 7.02506 16.6931 6.32707 15.8344 6.32707Z"/>
  </symbol>

  <!-- Instagram Icon -->
  <symbol id="icon-instagram" viewBox="0 0 18 18" fill="currentColor">
    <path d="M9.0041 4.50781C6.44874 4.50781 4.38758 6.51172 4.38758 8.99609C4.38758 11.4805 6.44874 13.4844 9.0041 13.4844C11.5595 13.4844 13.6206 11.4805 13.6206 8.99609C13.6206 6.51172 11.5595 4.50781 9.0041 4.50781ZM9.0041 11.9141C7.35276 11.9141 6.00276 10.6055 6.00276 8.99609C6.00276 7.38672 7.34874 6.07812 9.0041 6.07812C10.6595 6.07812 12.0054 7.38672 12.0054 8.99609C12.0054 10.6055 10.6554 11.9141 9.0041 11.9141Z"/>
  </symbol>

  <!-- Nikers Logo -->
  <symbol id="icon-nikers-logo" viewBox="0 0 79 29" fill="currentColor">
    <path d="M18.3672 2.50167C18.3672 2.50167 17.1136 5.36964 19.2139 5.96809C19.8685 6.08713 20.6148 5.9773 21.7232 5.42488L33.7094 0L21.6395 7.70492C21.6395 7.70492 18.6343 9.82582 17.137 8.45529C15.639 7.08477 17.1852 4.14248 18.3679 2.50167"/>
  </symbol>

</svg>